<mxfile host="app.diagrams.net" modified="2020-12-16T14:21:02.135Z" agent="5.0 (Windows)" etag="GKhBG3Z6WkokT-2MRbky" version="14.0.4" type="github" pages="3">
  <diagram id="prtHgNgQTEPvFCAcTncT" name="Page-1">
    <mxGraphModel dx="1084" dy="623" grid="1" gridSize="10" guides="1" tooltips="1" connect="1" arrows="1" fold="1" page="1" pageScale="1" pageWidth="827" pageHeight="1169" math="0" shadow="0">
      <root>
        <mxCell id="0" />
        <mxCell id="1" parent="0" />
        <mxCell id="jhAr2J2bAOebgnLg-okq-24" value="" style="rounded=1;whiteSpace=wrap;html=1;fillColor=none;dashed=1;" parent="1" vertex="1">
          <mxGeometry x="25" y="80" width="770" height="460" as="geometry" />
        </mxCell>
        <mxCell id="jhAr2J2bAOebgnLg-okq-1" value="EVA API Gateway" style="rounded=0;whiteSpace=wrap;html=1;fillColor=#cce5ff;strokeColor=#36393d;" parent="1" vertex="1">
          <mxGeometry x="260" y="240" width="90" height="40" as="geometry" />
        </mxCell>
        <mxCell id="jhAr2J2bAOebgnLg-okq-2" value="File Service" style="rounded=0;whiteSpace=wrap;html=1;fillColor=#ffff88;strokeColor=#36393d;" parent="1" vertex="1">
          <mxGeometry x="450" y="240" width="90" height="40" as="geometry" />
        </mxCell>
        <mxCell id="jhAr2J2bAOebgnLg-okq-3" value="Indexing Service" style="rounded=0;whiteSpace=wrap;html=1;fillColor=#cce5ff;strokeColor=#36393d;" parent="1" vertex="1">
          <mxGeometry x="280" y="565" width="90" height="40" as="geometry" />
        </mxCell>
        <mxCell id="jhAr2J2bAOebgnLg-okq-4" value="Enterprise Authentication" style="rounded=0;whiteSpace=wrap;html=1;fillColor=#cce5ff;strokeColor=#36393d;" parent="1" vertex="1">
          <mxGeometry x="170" y="565" width="90" height="40" as="geometry" />
        </mxCell>
        <mxCell id="jhAr2J2bAOebgnLg-okq-5" value="UI" style="rounded=0;whiteSpace=wrap;html=1;fillColor=#cce5ff;strokeColor=#36393d;" parent="1" vertex="1">
          <mxGeometry x="95" y="390" width="90" height="40" as="geometry" />
        </mxCell>
        <mxCell id="jhAr2J2bAOebgnLg-okq-6" value="Catalog Service" style="rounded=0;whiteSpace=wrap;html=1;fillColor=#ffff88;strokeColor=#36393d;" parent="1" vertex="1">
          <mxGeometry x="450" y="400" width="90" height="40" as="geometry" />
        </mxCell>
        <mxCell id="jhAr2J2bAOebgnLg-okq-7" value="Metadata&lt;br&gt;Store" style="shape=cylinder3;whiteSpace=wrap;html=1;boundedLbl=1;backgroundOutline=1;size=15;fillColor=#cce5ff;strokeColor=#36393d;" parent="1" vertex="1">
          <mxGeometry x="670" y="220" width="60" height="80" as="geometry" />
        </mxCell>
        <mxCell id="jhAr2J2bAOebgnLg-okq-8" value="Object Store (S3)" style="shape=cylinder3;whiteSpace=wrap;html=1;boundedLbl=1;backgroundOutline=1;size=15;fillColor=#ffff88;strokeColor=#36393d;" parent="1" vertex="1">
          <mxGeometry x="670" y="300" width="60" height="80" as="geometry" />
        </mxCell>
        <mxCell id="jhAr2J2bAOebgnLg-okq-9" value="Catalog Store" style="shape=cylinder3;whiteSpace=wrap;html=1;boundedLbl=1;backgroundOutline=1;size=15;fillColor=#ffff88;strokeColor=#36393d;" parent="1" vertex="1">
          <mxGeometry x="670" y="380" width="60" height="80" as="geometry" />
        </mxCell>
        <mxCell id="jhAr2J2bAOebgnLg-okq-10" value="Customer Catalog Store" style="shape=cylinder3;whiteSpace=wrap;html=1;boundedLbl=1;backgroundOutline=1;size=8;fillColor=#cce5ff;strokeColor=#36393d;" parent="1" vertex="1">
          <mxGeometry x="670" y="580" width="60" height="80" as="geometry" />
        </mxCell>
        <mxCell id="jhAr2J2bAOebgnLg-okq-12" value="" style="edgeStyle=segmentEdgeStyle;endArrow=classic;html=1;exitX=0;exitY=0.5;exitDx=0;exitDy=0;entryX=0.5;entryY=0;entryDx=0;entryDy=0;" parent="1" source="jhAr2J2bAOebgnLg-okq-1" target="jhAr2J2bAOebgnLg-okq-5" edge="1">
          <mxGeometry width="50" height="50" relative="1" as="geometry">
            <mxPoint x="150" y="265" as="sourcePoint" />
            <mxPoint x="200" y="215" as="targetPoint" />
          </mxGeometry>
        </mxCell>
        <mxCell id="jhAr2J2bAOebgnLg-okq-13" value="" style="edgeStyle=orthogonalEdgeStyle;elbow=horizontal;endArrow=classic;html=1;exitX=0.5;exitY=1;exitDx=0;exitDy=0;entryX=0.5;entryY=0;entryDx=0;entryDy=0;" parent="1" source="jhAr2J2bAOebgnLg-okq-1" target="jhAr2J2bAOebgnLg-okq-4" edge="1">
          <mxGeometry width="50" height="50" relative="1" as="geometry">
            <mxPoint x="390" y="400" as="sourcePoint" />
            <mxPoint x="440" y="350" as="targetPoint" />
          </mxGeometry>
        </mxCell>
        <mxCell id="jhAr2J2bAOebgnLg-okq-14" value="" style="endArrow=classic;html=1;exitX=0.75;exitY=1;exitDx=0;exitDy=0;entryX=0.5;entryY=0;entryDx=0;entryDy=0;" parent="1" source="jhAr2J2bAOebgnLg-okq-1" target="jhAr2J2bAOebgnLg-okq-3" edge="1">
          <mxGeometry width="50" height="50" relative="1" as="geometry">
            <mxPoint x="390" y="400" as="sourcePoint" />
            <mxPoint x="440" y="350" as="targetPoint" />
          </mxGeometry>
        </mxCell>
        <mxCell id="jhAr2J2bAOebgnLg-okq-16" value="" style="endArrow=classic;html=1;exitX=1;exitY=0.5;exitDx=0;exitDy=0;entryX=0;entryY=0.5;entryDx=0;entryDy=0;" parent="1" source="jhAr2J2bAOebgnLg-okq-1" target="jhAr2J2bAOebgnLg-okq-2" edge="1">
          <mxGeometry width="50" height="50" relative="1" as="geometry">
            <mxPoint x="390" y="400" as="sourcePoint" />
            <mxPoint x="440" y="350" as="targetPoint" />
          </mxGeometry>
        </mxCell>
        <mxCell id="jhAr2J2bAOebgnLg-okq-17" value="" style="endArrow=classic;html=1;exitX=1;exitY=0.5;exitDx=0;exitDy=0;entryX=0;entryY=0.5;entryDx=0;entryDy=0;entryPerimeter=0;" parent="1" source="jhAr2J2bAOebgnLg-okq-2" target="jhAr2J2bAOebgnLg-okq-7" edge="1">
          <mxGeometry width="50" height="50" relative="1" as="geometry">
            <mxPoint x="390" y="400" as="sourcePoint" />
            <mxPoint x="440" y="350" as="targetPoint" />
          </mxGeometry>
        </mxCell>
        <mxCell id="jhAr2J2bAOebgnLg-okq-18" value="" style="edgeStyle=elbowEdgeStyle;elbow=horizontal;endArrow=classic;html=1;exitX=1;exitY=0.75;exitDx=0;exitDy=0;entryX=0;entryY=0.5;entryDx=0;entryDy=0;entryPerimeter=0;" parent="1" source="jhAr2J2bAOebgnLg-okq-2" target="jhAr2J2bAOebgnLg-okq-8" edge="1">
          <mxGeometry width="50" height="50" relative="1" as="geometry">
            <mxPoint x="390" y="400" as="sourcePoint" />
            <mxPoint x="440" y="350" as="targetPoint" />
          </mxGeometry>
        </mxCell>
        <mxCell id="jhAr2J2bAOebgnLg-okq-19" value="" style="edgeStyle=elbowEdgeStyle;elbow=horizontal;endArrow=classic;html=1;exitX=1;exitY=0.75;exitDx=0;exitDy=0;entryX=0;entryY=0.5;entryDx=0;entryDy=0;" parent="1" source="jhAr2J2bAOebgnLg-okq-1" target="jhAr2J2bAOebgnLg-okq-6" edge="1">
          <mxGeometry width="50" height="50" relative="1" as="geometry">
            <mxPoint x="390" y="400" as="sourcePoint" />
            <mxPoint x="440" y="350" as="targetPoint" />
          </mxGeometry>
        </mxCell>
        <mxCell id="jhAr2J2bAOebgnLg-okq-20" value="" style="endArrow=classic;html=1;exitX=1;exitY=0.5;exitDx=0;exitDy=0;entryX=0;entryY=0.5;entryDx=0;entryDy=0;entryPerimeter=0;" parent="1" source="jhAr2J2bAOebgnLg-okq-6" target="jhAr2J2bAOebgnLg-okq-9" edge="1">
          <mxGeometry width="50" height="50" relative="1" as="geometry">
            <mxPoint x="390" y="400" as="sourcePoint" />
            <mxPoint x="440" y="350" as="targetPoint" />
          </mxGeometry>
        </mxCell>
        <mxCell id="jhAr2J2bAOebgnLg-okq-21" value="Customer Catalog Service" style="rounded=0;whiteSpace=wrap;html=1;fillColor=#cce5ff;strokeColor=#36393d;" parent="1" vertex="1">
          <mxGeometry x="450" y="595" width="90" height="50" as="geometry" />
        </mxCell>
        <mxCell id="jhAr2J2bAOebgnLg-okq-22" value="" style="endArrow=classic;html=1;exitX=1;exitY=0.5;exitDx=0;exitDy=0;entryX=0;entryY=0.5;entryDx=0;entryDy=0;entryPerimeter=0;" parent="1" source="jhAr2J2bAOebgnLg-okq-21" target="jhAr2J2bAOebgnLg-okq-10" edge="1">
          <mxGeometry width="50" height="50" relative="1" as="geometry">
            <mxPoint x="390" y="390" as="sourcePoint" />
            <mxPoint x="440" y="340" as="targetPoint" />
          </mxGeometry>
        </mxCell>
        <mxCell id="jhAr2J2bAOebgnLg-okq-28" value="&lt;font style=&quot;font-size: 50px&quot;&gt;...&lt;/font&gt;" style="text;html=1;strokeColor=none;fillColor=none;align=center;verticalAlign=middle;whiteSpace=wrap;rounded=0;dashed=1;" parent="1" vertex="1">
          <mxGeometry x="360" y="120" width="90" height="60" as="geometry" />
        </mxCell>
        <mxCell id="jhAr2J2bAOebgnLg-okq-30" value="&lt;b&gt;&lt;font style=&quot;font-size: 18px&quot;&gt;part of EVA 2.0&lt;/font&gt;&lt;/b&gt;" style="text;html=1;strokeColor=none;fillColor=none;align=center;verticalAlign=middle;whiteSpace=wrap;rounded=0;dashed=1;" parent="1" vertex="1">
          <mxGeometry x="70" y="95" width="140" height="50" as="geometry" />
        </mxCell>
        <mxCell id="jhAr2J2bAOebgnLg-okq-32" value="" style="endArrow=classic;html=1;exitX=0.5;exitY=1;exitDx=0;exitDy=0;entryX=0.5;entryY=0;entryDx=0;entryDy=0;" parent="1" source="jhAr2J2bAOebgnLg-okq-6" target="jhAr2J2bAOebgnLg-okq-21" edge="1">
          <mxGeometry width="50" height="50" relative="1" as="geometry">
            <mxPoint x="390" y="370" as="sourcePoint" />
            <mxPoint x="440" y="320" as="targetPoint" />
          </mxGeometry>
        </mxCell>
        <mxCell id="jhAr2J2bAOebgnLg-okq-34" value="&lt;h1&gt;&lt;span&gt;Search 2.0&lt;/span&gt;&lt;span style=&quot;font-size: 12px ; font-weight: 400&quot;&gt;&lt;br&gt;&lt;ul&gt;&lt;li&gt;&lt;span style=&quot;font-size: 12px ; font-weight: 400&quot;&gt;Users can search against the Catalog&lt;br&gt;- Works with Customer Catalog service to retrieve catalog data from outside of our in-house stores (should this only be one connection from our catalog service?)&lt;/span&gt;&lt;/li&gt;&lt;li&gt;&lt;span style=&quot;font-size: 12px ; font-weight: 400&quot;&gt;Users can search against the Metadata store&lt;/span&gt;&lt;/li&gt;&lt;li&gt;&lt;span style=&quot;font-size: 12px ; font-weight: 400&quot;&gt;Users can search against the Indexing service&lt;/span&gt;&lt;/li&gt;&lt;li&gt;&lt;span style=&quot;font-size: 12px ; font-weight: 400&quot;&gt;Users can search against the Object store&lt;/span&gt;&lt;/li&gt;&lt;/ul&gt;&lt;/span&gt;&lt;/h1&gt;" style="text;html=1;strokeColor=none;fillColor=none;spacing=5;spacingTop=-20;whiteSpace=wrap;overflow=hidden;rounded=0;dashed=1;" parent="1" vertex="1">
          <mxGeometry x="60" y="680" width="710" height="250" as="geometry" />
        </mxCell>
      </root>
    </mxGraphModel>
  </diagram>
  <diagram id="2Oz2aHtF88N06Vx7y45X" name="Page-2">
    <mxGraphModel dx="1422" dy="893" grid="1" gridSize="10" guides="1" tooltips="1" connect="1" arrows="1" fold="1" page="1" pageScale="1" pageWidth="850" pageHeight="1100" math="0" shadow="0">
      <root>
        <mxCell id="SZyiqaPC0L573oanjoGx-0" />
        <mxCell id="SZyiqaPC0L573oanjoGx-1" parent="SZyiqaPC0L573oanjoGx-0" />
      </root>
    </mxGraphModel>
  </diagram>
  <diagram id="X_H9UYD9FooLNVZ4ZfM_" name="Page-3">
    <mxGraphModel dx="1422" dy="893" grid="1" gridSize="10" guides="1" tooltips="1" connect="1" arrows="1" fold="1" page="1" pageScale="1" pageWidth="850" pageHeight="1100" math="0" shadow="0">
      <root>
        <mxCell id="lAeZC2GdKMU3h2ND-_H6-0" />
        <mxCell id="lAeZC2GdKMU3h2ND-_H6-1" parent="lAeZC2GdKMU3h2ND-_H6-0" />
      </root>
    </mxGraphModel>
  </diagram>
</mxfile>
